<svg xmlns="http://www.w3.org/2000/svg" xmlns:xlink="http://www.w3.org/1999/xlink" id="Camada_1" x="0px" y="0px" viewBox="0 0 300 300" style="enable-background:new 0 0 300 300;" xml:space="preserve"><style type="text/css">	.st0{fill-rule:evenodd;clip-rule:evenodd;}	.st1{fill-rule:evenodd;clip-rule:evenodd;fill:#FFE600;}</style><g>	<g>		<path class="st0" d="M131.4,14.5c9.8-10.2,26.3-10.8,35.7,0.2l-10.3,11.9c-4.9,5.6-9.6,6.5-14.7,0.5L131.4,14.5z"></path>		<path class="st0" d="M109.7,19c16.4-5.5,20.8,4.5,32.4,17.1C121.2,45,118.5,26.6,109.7,19z"></path>		<path class="st0" d="M189.5,19c-16.4-5.5-20.8,4.5-32.4,17.1C178,45,180.7,26.6,189.5,19z"></path>		<path class="st0" d="M72.6,36.2c36.6-36.9,36.3,8.3,57.2,8.5C110.2,62.8,111.4,29.3,72.6,36.2z"></path>		<path class="st0" d="M226.3,36.2c-36.6-36.9-36.3,8.3-57.2,8.5C188.7,62.8,187.5,29.3,226.3,36.2z"></path>		<path class="st0" d="M143.9,221.5L129,207.3c-3.9-3.7-4.1-6.7,0-9.7l14.1-10.4c5.5-3.2,7.7-2.9,13.1,0.4l13.3,9.8   c5,3.7,4.9,6.2,0,10.6l-15.1,13.9C150.2,225.8,148.1,225.5,143.9,221.5z"></path>		<path class="st0" d="M149.8,45.1L149.8,45.1L149.8,45.1c15.9,0.1,20.7,11.9,30.9,11.9c12,0,13.7-18.9,48.8-13.4   C236.2,50.2,241.7,57,247,68c-44.8-18-76.8,10-83.7,54.4c2.9-4.5,4.4-6.9,6.8-11.6c17.5,5.4,34.7-8.8,37.5-27.4   c11.6-2.1,13.6,9.2,13.1,19.1c-1.3,24.9-19.3,23.8-23.6,42.6c-2.1,8.9,1.5,57.5-17.7,42c-17.2-14-27.5-16.4-20.7-25.7   c3.9-5.4,9.5-5.9,12-11.5c4.3-9.5-10.1-10.4-20.9-10.3h0c-10.8-0.1-25.2,0.8-20.9,10.3c2.5,5.6,8.1,6.1,12,11.5   c6.7,9.4-3.5,11.7-20.7,25.7c-19.1,15.4-15.6-33.1-17.7-42c-4.3-18.8-22.3-17.6-23.6-42.6c-0.5-9.9,1.3-21,12.9-18.8   c4,18.4,20.3,33,37.8,27.5c2.4,4.7,3.5,6.6,6.4,11C127,77.6,97.8,49.9,53,68c4.8-10.3,10.1-18.1,17.1-24.5   c35.1-5.5,36.8,13.4,48.8,13.4C129.1,56.9,133.9,45.1,149.8,45.1L149.8,45.1z"></path>		<path class="st0" d="M258.1,105.8c-16.8-25.5-49.2-32.4-74.9-16.9c18.6-23.1,44.2-26.7,68.7-11.1   C254.7,86.4,256.2,92.4,258.1,105.8z"></path>		<path class="st0" d="M225,94.3c-2.4,18.7,13.5,20.1,32,39.5C256.5,107.1,240.7,105.7,225,94.3z"></path>		<path class="st0" d="M223.3,114.1c-4.9,31.6,23.9,34.8,37.5,59.2C263.7,136.5,242,131,223.3,114.1z"></path>		<path class="st0" d="M214.6,132.9c-7.7,33.9,25.6,47.1,36.4,83.8C273.7,167.9,227.9,167.2,214.6,132.9z"></path>		<path class="st0" d="M210.4,164.6c-2.6,39,20,50.3,16.5,87C267.4,218.8,221.2,190.5,210.4,164.6z"></path>		<path class="st0" d="M202.1,186.4c-14.4,26.9,6.6,47.4,0.4,82.9C235.1,242,212.4,221.5,202.1,186.4z"></path>		<path class="st0" d="M173.6,229.7c-24.5,14.9-15.3,39.4-18,66.3C179.9,277.1,175.8,264.3,173.6,229.7z"></path>		<path class="st0" d="M193.6,210.5c-23.8,14.7,2,53.1-19.2,79C218.5,271,193.2,245.9,193.6,210.5z"></path>		<path class="st0" d="M41.9,105.8c16.8-25.5,49.2-32.4,74.9-16.9C98.2,65.8,72.6,62.2,48.1,77.7C45.3,86.4,43.8,92.4,41.9,105.8z"></path>		<path class="st0" d="M75,94.3c2.4,18.7-13.5,20.1-32,39.5C43.5,107.1,59.3,105.7,75,94.3z"></path>		<path class="st0" d="M76.7,114.1c4.9,31.6-23.9,34.8-37.5,59.2C36.3,136.5,58,131,76.7,114.1z"></path>		<path class="st0" d="M85.4,132.9c7.7,33.9-25.6,47.1-36.4,83.8C26.3,167.9,72.1,167.2,85.4,132.9z"></path>		<path class="st0" d="M89.6,164.6c2.6,39-20,50.3-16.5,87C32.6,218.8,78.8,190.5,89.6,164.6z"></path>		<path class="st0" d="M97.9,186.4c14.4,26.9-6.6,47.4-0.4,82.9C64.9,242,87.6,221.5,97.9,186.4z"></path>		<path class="st0" d="M126.4,229.7c24.5,14.9,15.3,39.4,18,66.3C120.1,277.1,124.2,264.3,126.4,229.7z"></path>		<path class="st0" d="M106.4,210.5c23.8,14.7-2,53.1,19.2,79C81.5,271,106.8,245.9,106.4,210.5z"></path>		<path class="st1" d="M41.9,103.7c16.8-25.5,49.2-32.4,74.9-16.9C98.2,63.7,72.6,60.1,48.1,75.7C45.3,84.3,43.8,90.3,41.9,103.7   L41.9,103.7z M72.6,34.1c36.6-36.9,36.3,8.3,57.2,8.5C110.2,60.7,111.4,27.2,72.6,34.1L72.6,34.1z M109.7,17   c8.8,7.5,11.5,25.9,32.4,17.1C130.5,21.5,126,11.5,109.7,17L109.7,17z M131.3,11.8c9.8-10.2,26.3-10.8,35.7,0.2l-10.3,11.9   c-4.9,5.6-9.6,6.5-14.7,0.5L131.3,11.8L131.3,11.8z M189.5,17c-16.4-5.5-20.8,4.5-32.4,17.1C178,42.9,180.7,24.5,189.5,17   L189.5,17z M226.3,34.1c-38.8-6.9-37.6,26.6-57.2,8.5C190,42.4,189.7-2.8,226.3,34.1L226.3,34.1z M149.8,42.1L149.8,42.1   L149.8,42.1c15.9,0.1,20.7,11.9,30.9,11.9c12,0,13.7-18.9,48.8-13.4C236.2,47.2,241.7,54,247,65c-44.8-18-81.4,15-84.9,60.8   c2.9-4.5,5.3-8.2,7.7-13c17.5,5.4,36-10.9,38.9-29.5c11.6-2.1,12.5,6.2,12,16.1c-1.3,24.9-19.3,23.8-23.6,42.6   c-2.1,8.9,1.5,57.5-17.7,42c-17.2-14-27.5-16.4-20.7-25.7c3.9-5.4,9.5-5.9,12-11.5c4.3-9.5-10.1-10.4-20.9-10.3h0   c-10.8-0.1-25.2,0.8-20.9,10.3c2.5,5.6,8.1,6.1,12,11.5c6.7,9.4-3.5,11.7-20.7,25.7c-19.1,15.4-15.6-33.1-17.7-42   c-4.3-18.8-22.3-17.6-23.6-42.6c-0.5-9.9,0.4-18.3,12-16.1c2.9,18.6,20.7,34.9,38.3,29.5c2.4,4.7,5.5,8.5,8.4,13   C131.9,80,97.8,46.9,53,65c4.8-10.3,10.1-18.1,17.1-24.5c35.1-5.5,36.8,13.4,48.8,13.4C129.1,53.9,133.9,42.1,149.8,42.1   L149.8,42.1L149.8,42.1z M258.1,103.7c-1.8-13.4-3.4-19.4-6.2-28c-24.5-15.6-50.1-11.9-68.7,11.1   C208.9,71.3,241.3,78.2,258.1,103.7L258.1,103.7z M229.8,92.2c-2.4,18.7,13.5,20.1,32,39.5C261.2,105,245.5,103.6,229.8,92.2   L229.8,92.2z M226,110.6c-4.9,31.6,23.9,34.8,37.5,59.2C266.4,132.9,244.7,127.5,226,110.6L226,110.6z M218.5,129.1   c-7.7,33.9,25.6,47.1,36.4,83.8C277.6,164.1,231.8,163.4,218.5,129.1L218.5,129.1z M214.2,161.9c-2.6,39,20,50.3,16.5,87   C271.2,216.1,225.1,187.8,214.2,161.9L214.2,161.9z M206,186.1c-14.4,26.9,6.6,47.4,0.4,82.9C239,241.7,216.2,221.2,206,186.1   L206,186.1z M192.7,207.8c-0.4,35.4,24.9,60.5-19.2,79C194.7,260.9,168.9,222.5,192.7,207.8L192.7,207.8z M172.1,227   c-24.5,14.9-15.3,39.4-18,66.3C178.4,274.4,174.3,261.6,172.1,227L172.1,227z M127.9,227c24.5,14.9,15.3,39.4,18,66.3   C121.6,274.4,125.7,261.6,127.9,227L127.9,227z M107.3,207.8c0.4,35.4-24.9,60.5,19.2,79C105.3,260.9,131.1,222.5,107.3,207.8   L107.3,207.8z M143.9,218c4.2,4,6.3,4.2,10.6,0.4l15.1-13.9c4.8-4.5,5-6.9,0-10.6l-13.3-9.8c-5.3-3.3-7.6-3.6-13.1-0.4L129,194   c-4.2,3.1-3.9,6,0,9.7L143.9,218L143.9,218z M94,186.1C83.8,221.2,61,241.7,93.6,269C87.4,233.5,108.4,213,94,186.1L94,186.1z    M85.8,161.9c-10.9,25.8-57,54.2-16.5,87C65.8,212.2,88.4,200.9,85.8,161.9L85.8,161.9z M81.5,129.1c-13.3,34.3-59.1,35-36.4,83.8   C56,176.2,89.2,163,81.5,129.1L81.5,129.1z M74,110.6c-18.7,16.9-40.4,22.4-37.5,59.2C50.1,145.4,78.9,142.1,74,110.6L74,110.6z    M70.2,92.2c2.4,18.7-13.5,20.1-32,39.5C38.8,105,54.5,103.6,70.2,92.2z"></path>	</g></g></svg>